<?xml version="1.0" encoding="utf-8"?>
<!-- Generator: Adobe Illustrator 26.4.1, SVG Export Plug-In . SVG Version: 6.00 Build 0)  -->
<svg version="1.1" id="Layer_1" xmlns="http://www.w3.org/2000/svg" xmlns:xlink="http://www.w3.org/1999/xlink" x="0px" y="0px"
	 viewBox="0 0 228 78" style="enable-background:new 0 0 228 78;" xml:space="preserve">
<style type="text/css">
	.st0{fill:#007481;}
	.st1{fill:#808080;}
</style>
<g>
	<path class="st0" d="M223.7,39.5c-0.1,7.6-2.8,14.7-7.1,20.3c0-2.8,0-6.5,0-6.8c0.2-13.1-4-25.1-11.1-34.7c2.3-1.8,4.7-3.5,7.2-4.9
		c0,0,0.1,0,0.1-0.1c6.7,6.3,10.9,15.3,10.9,25.2v0.1C223.7,39.1,223.7,39.3,223.7,39.5 M214.8,53.1c0,0.1,0,0.7,0,1.5h-6.2v-9.8
		c0-7.7-5.7-14-13.3-15.3c1.7-2.5,3.6-4.8,5.7-7c1-1,2-2,3.1-2.9C211.2,29.1,215,40.8,214.8,53.1 M214.7,62.1
		c-1.2,1.4-2.6,2.7-4.1,3.8v-5.3h-8.4V46.1c0-5.7-4.6-10.4-10.4-10.4h-6.1c-5.7,0-10.4,4.6-10.4,10.4v14.6H167v5
		c-1.4-1.2-2.8-2.5-4-3.9c0-1.3,0-3.3,0-5.2h8.4l-0.1-11.9c0-7.3,6.2-13.2,13.8-13.2h7.4c7.6,0,13.8,6,13.8,13.3v11.9h8.5
		C214.7,58.6,214.7,60.9,214.7,62.1 M200.2,64.8c-0.1,0.3-0.2,0.7-0.4,1.1c-0.1,0.4-0.3,0.9-0.4,1.4c-0.1,0.5-0.3,1-0.5,1.5h-0.8
		c-0.2-0.5-0.3-0.9-0.4-1.4c-0.1-0.4-0.3-0.8-0.4-1.2c-0.1-0.4-0.3-0.8-0.5-1.2c-0.2-0.4-0.3-0.8-0.5-1.1l0.9-0.3
		c0.1,0.2,0.2,0.5,0.3,0.8s0.2,0.6,0.4,1c0.1,0.3,0.2,0.7,0.3,1s0.2,0.7,0.3,1c0.1-0.7,0.3-1.3,0.5-1.9s0.3-1.2,0.5-1.8l0.9,0.3
		C200.4,64.2,200.3,64.5,200.2,64.8 M195.6,64.7c-0.2,0-0.4,0-0.5,0c-0.2,0-0.4,0-0.5,0c-0.4,0-0.7,0-1,0.1c0.1,0.2,0.1,0.5,0.2,0.8
		c0,0.3,0.1,0.5,0.1,0.8s0.1,0.6,0.1,0.8c0,0.3,0,0.5,0,0.8s0,0.7-0.1,1h-0.7c0-0.8-0.1-1.6-0.2-2.4c-0.1-0.8-0.3-1.6-0.5-2.3
		l0.6-0.3c0.2,0,0.5-0.1,0.7-0.1s0.5,0,0.7,0s0.4,0,0.7,0c0.2,0,0.4,0,0.6,0.1L195.6,64.7z M190.9,68.8c-0.2,0-0.4,0.1-0.6,0.1
		c-0.2,0-0.4,0-0.6,0c-0.6,0-1.1-0.1-1.4-0.3c-0.3-0.2-0.5-0.5-0.5-1c0-0.3,0.1-0.5,0.2-0.7c0.1-0.2,0.3-0.4,0.6-0.6
		c-0.3-0.1-0.5-0.2-0.6-0.3c-0.2-0.2-0.2-0.4-0.2-0.6s0.1-0.4,0.2-0.6c0.1-0.2,0.3-0.4,0.6-0.5c0.2-0.2,0.5-0.3,0.8-0.4
		s0.7-0.2,1-0.2l-0.2,0.9c-0.2,0-0.4,0.1-0.6,0.1c-0.2,0.1-0.4,0.1-0.5,0.2s-0.3,0.2-0.3,0.2c-0.1,0.1-0.1,0.2-0.1,0.3
		c0,0.1,0.1,0.2,0.3,0.3c0.2,0.1,0.5,0.1,0.8,0.1c0.1,0,0.2,0,0.3,0s0.1,0,0.2,0l-0.1,0.8c-0.5,0.1-0.8,0.2-1,0.3
		c-0.2,0.1-0.4,0.3-0.4,0.5s0.1,0.3,0.3,0.4s0.5,0.1,0.9,0.1c0.2,0,0.4,0,0.6,0c0.2,0,0.4,0,0.6-0.1L190.9,68.8z M193.4,44.1
		c1.5-1,1.7-1.2,1.6-0.5v0.3c0,0.2-0.1,0.4-0.3,0.5c-0.2,0.2-0.6,0.5-0.8,1.1C193.4,46.5,191.9,45.2,193.4,44.1 M187.8,54.4
		c0,0,0.1,0,0.2-0.1l3.5-0.4c1.5-0.2,2-2.2,1.3-2.7c-0.6-0.5-1.3-0.7-1.4-1.8c0-0.5,0.7-2.5,2.6-1.6c1,0.5,2.1,0.4,2.1,0.4v-0.4
		l-0.2-1.7c-1.2,0.2-0.9-0.6-0.7-1c0.1-0.4,0.6-0.3,1.6-0.7c0.9-0.4,1.3-0.6,1.5-0.6l0,0l0.2,1.8c0,0.1-0.1,0.3-0.2,0.3
		c-0.2,0-0.4,0.1-0.5,0.1c-0.3,0.1-0.2,0.2-0.2,0.5c0,0.6,0,1.1-0.1,1.7c-0.1,0.3-0.1,0.6-0.3,0.8c-0.4,0.5-1.1,0.6-1.5,1.1
		c-0.5,0.4-0.9,0.9-1.3,1.4c-0.3,0.3-0.5,1.4-0.6,1.8c-0.3,1.5-3.9,2.8-5.6,2.8C185.4,56.2,187.4,54.7,187.8,54.4 M183.9,49.5
		c0.3-0.2,0.3-0.7,0.3-1.1c0-0.7-0.4-1.4,0.3-2c0.4-0.4,1.4-0.7,1.9-0.4c1.3,0.8-0.6,2.8-1.2,3.4c-0.7,0.8-1.5,1.5-2.4,2
		c-0.5,0.3-2,1.4-2.6,0.8c-0.1-0.1-0.1-0.2-0.2-0.3c-0.5-2,0.4-3.6,1.5-5.2c0.7-0.9,1.4-1.8,2.3-2.5c0.1-0.1,0.5-0.6,0.7-0.6
		c0,0,0,0.1-0.1,0.1c0,0.1-0.1,0.1-0.1,0.1c-0.3,0.6-2.8,4.9-2.9,5.7C181.4,50.5,183.4,49.9,183.9,49.5 M185.6,53.1
		c-0.9,1-2.9,3-3.5,3.6c-0.6,0.7-3,0.6-3,0.6s2-1.6,3-2.4c1.1-0.8,3.1-3.2,3.9-4.1c0.8-0.9,2.2-2.6,2.5-3.1c0.4-0.5,1.6-1.8,1.6-1.8
		s0.7,1.3-1.1,3.5C188.4,50.4,186.6,52,185.6,53.1 M185.4,68.8h-0.7c0-0.4,0-0.8-0.1-1.2c0-0.4-0.1-0.8-0.2-1.2
		c-0.1-0.4-0.1-0.8-0.2-1.2c-0.1-0.4-0.2-0.8-0.3-1.1l0.9-0.3c0.1,0.3,0.2,0.6,0.3,0.9c0.1,0.3,0.1,0.7,0.2,1.1
		c0.1,0.4,0.1,0.7,0.1,1.1s0,0.7,0,1.1C185.5,68.2,185.4,68.5,185.4,68.8 M182,68c-0.1,0.2-0.2,0.3-0.3,0.5
		c-0.1,0.1-0.3,0.2-0.5,0.3c-0.2,0.1-0.4,0.1-0.6,0.1c-0.2,0-0.5,0-0.7-0.1s-0.4-0.1-0.6-0.2c-0.3,0.1-0.5,0.2-0.8,0.2
		c-0.3,0.1-0.6,0.1-0.8,0.1H177l-0.1-0.1V68l0.1-0.1h1c0.1,0,0.2,0,0.3,0c-0.1-0.1-0.2-0.3-0.2-0.4S178,67.2,178,67s0-0.4,0.1-0.5
		c0.1-0.2,0.1-0.3,0.3-0.4c0.1-0.1,0.2-0.2,0.4-0.3c0.2-0.1,0.3-0.1,0.5-0.1s0.3,0,0.5,0.1s0.3,0.2,0.4,0.3c0.1,0.1,0.2,0.3,0.3,0.4
		c0.1,0.2,0.1,0.4,0.1,0.5c0,0.2,0,0.3-0.1,0.5c0,0.1-0.1,0.3-0.2,0.4h0.1h0.1c0.2,0,0.3,0,0.4,0c0.1,0,0.2-0.1,0.3-0.1
		s0.1-0.1,0.1-0.1v-0.1c0-0.2,0-0.4-0.1-0.6s-0.2-0.4-0.4-0.7c-0.2-0.2-0.4-0.4-0.6-0.6c-0.3-0.2-0.6-0.4-1-0.5l0.4-0.8
		c0.4,0.2,0.7,0.3,1.1,0.6c0.3,0.2,0.6,0.5,0.8,0.8s0.4,0.6,0.5,0.9s0.2,0.6,0.2,0.9C182.1,67.6,182.1,67.8,182,68 M163.1,51.2
		c0.2-11.6,4-22.6,10.8-31.6c1.4,1.2,2.8,2.6,4.1,4c1.7,1.8,3.3,3.9,4.7,5.9c-7.7,1.1-13.6,7.6-13.6,15.3l0.1,9.8h-6.1
		C163.1,52.9,163.1,51.6,163.1,51.2 M161.2,59.5c-4-5.4-6.5-12-6.8-19.2c0-0.2,0-0.5,0-0.7s0-0.4,0-0.6v-0.1
		c0-9.9,4.2-18.9,10.9-25.2c0,0,0.1,0,0.1,0.1c2.5,1.4,4.9,3,7.1,4.8c-6.9,9-11.1,20.3-11.3,32.7C161.2,51.9,161.2,56.3,161.2,59.5
		 M185.4,4.3c1.2-0.1,3.6-0.2,3.6-0.2c-0.1,0.1-0.2,0.1-0.3,0.2c-0.5,0.3-1,0.6-1.5,0.9c-5.1,3.1-9.7,7.1-13.5,11.8
		c-2.1-1.7-4.4-3.3-6.8-4.6c0,0-0.1,0-0.1-0.1C171.9,7.9,178.3,5,185.4,4.3 M200.8,15.7c0.7,0.8,1.5,1.6,2.2,2.5
		c-3.7,3.2-7,6.9-9.7,11.1c-0.2,0-0.5,0-0.7,0h-5.7h-1.7c-0.1,0-0.2,0-0.3,0c-2.7-4.2-6-7.9-9.7-11.1c1-1.2,2-2.4,3.1-3.5
		c3.3-3.4,6.9-6.2,10.8-8.4C193.3,8.7,197.3,11.9,200.8,15.7 M189.1,4.1c1.2,0,2.4,0.1,3.6,0.2c7.1,0.7,13.5,3.6,18.7,7.9
		c0,0-0.1,0-0.1,0.1c-2.4,1.4-4.7,2.9-6.9,4.7c-3.8-4.7-8.4-8.7-13.5-11.8c-0.5-0.3-1-0.6-1.6-0.9C189.2,4.2,189.1,4.2,189.1,4.1
		L189.1,4.1z M216.7,11.6c-0.5-0.5-0.9-0.9-1.4-1.4c-4.4-4-9.6-7-15.5-8.6c-1.1-0.3-2.3-0.6-3.4-0.8c-2.4-0.4-4.8-0.7-7.3-0.7
		s-5,0.2-7.4,0.7l0,0c-1.2,0.2-2.3,0.5-3.4,0.8c-5.8,1.7-11.1,4.7-15.4,8.6c-0.5,0.4-1,0.9-1.4,1.4c-7,7-11.3,16.7-11.3,27.4
		c0,11.7,5.2,22.2,13.4,29.4c0.8,0.7,1.7,1.4,2.6,2.1c5.9,4.3,13,6.9,20.7,7.4c0.7,0,1.3,0.1,2,0.1h0.2c0.6,0,1.3,0,1.9,0
		c7.6-0.4,14.7-2.9,20.5-7.1c0.9-0.6,1.8-1.3,2.6-2c8.5-7.3,13.9-18,13.9-29.9C228,28.3,223.6,18.6,216.7,11.6"/>
	<path class="st0" d="M179.3,66.4c-0.7,0-0.7,1,0,1C179.9,67.4,179.9,66.4,179.3,66.4"/>
	<path class="st1" d="M30.4,26.4c0-0.6,0.2-1.1,0.6-1.6c0.4-0.4,0.9-0.6,1.5-0.6l2.3-0.1v5.6h-2.3c-0.6,0-1-0.2-1.5-0.7
		c-0.4-0.4-0.6-1-0.6-1.6V26.4z M32.4,31.4h4.2v-8.9h-4.2c-1.1,0-2,0.4-2.8,1.2c-0.8,0.8-1.1,1.7-1.1,2.7v1.1c0,1.1,0.4,2,1.1,2.7
		C30.4,31.1,31.3,31.4,32.4,31.4"/>
	<path class="st1" d="M31.4,20.7h1.7h0.1v-0.2v-1.7h-0.1h-1.7h-0.1v1.7C31.3,20.7,31.3,20.7,31.4,20.7"/>
	<path class="st1" d="M34.1,20.7h1.7l0,0v-0.2v-1.7l0,0h-1.7H34v1.7C34,20.7,34,20.7,34.1,20.7"/>
	<path class="st1" d="M53.3,35.1L53.3,35.1l0.1-0.2v-1.7l-0.1-0.1h-1.7c0,0-0.1,0-0.1,0.1v1.7c0,0.1,0,0.2,0.1,0.2H53.3z"/>
	<path class="st1" d="M50.6,35.1L50.6,35.1l0.1-0.2v-1.7l-0.1-0.1h-1.7c0,0-0.1,0-0.1,0.1v1.7c0,0.1,0,0.2,0.1,0.2H50.6z"/>
	<path class="st1" d="M62.6,29.7h-3.2c-0.4,0-0.6-0.3-0.6-0.9v-2.3c0-0.6,0.2-1.1,0.6-1.5c0.4-0.4,0.9-0.6,1.5-0.6h1.6
		c0.3,0,0.4,0.1,0.5,0.3l0.1,4.1C63.2,29.4,63,29.7,62.6,29.7 M64.2,23.3c-0.4-0.3-0.8-0.5-1.3-0.5h-2c-1.1,0-1.9,0.4-2.7,1.1
		c-0.7,0.8-1.1,1.7-1.1,2.7l0.1,2.3V29c-0.2,0.3-0.4,0.5-0.6,0.6c-0.2,0.1-0.4,0.1-0.8,0.1h-0.5h-0.8h-2.2v-7.2l-1.5,0.6
		c-0.3,0.1-0.4,0.3-0.4,0.6l0.1,6h-2h-1h-6.1v-6.9l-1.5,0.5c-0.2,0.2-0.3,0.4-0.3,0.6v7.4c0,1.8-0.9,2.7-2.7,2.7h-0.3L36,35.5
		c0.4,0.1,0.9,0.1,1.5,0.1c1.2,0,2.2-0.4,2.9-1.1c0.7-0.7,1-1.8,1-3.2h6.1h1h6.1h0.8h0.5c0.7,0,1.4-0.2,2-0.6c0.4,0.4,1,0.6,1.6,0.6
		h3.2c0.7,0,1.3-0.2,1.7-0.7c0.4-0.5,0.6-1.1,0.6-1.8c0-1.9,0-3.3-0.1-4.3C64.8,24,64.6,23.6,64.2,23.3"/>
	<path class="st1" d="M76.2,30.4c0.7-0.7,1-1.5,1-2.6v-9.9l-1.6,0.6c-0.2,0.1-0.3,0.3-0.3,0.6v8.4c0,1.5-0.6,2.2-1.9,2.2H73
		l-2.5-10.5h-2L71,29.8h-4.3v1.6h6.9C74.7,31.4,75.5,31.1,76.2,30.4"/>
	<path class="st1" d="M68.3,18.3l3.2-1l-0.3-1.1l-1.3,0.4c-0.5-0.2-0.8-0.5-0.8-0.8c0-0.3,0.3-0.4,0.9-0.4c0.2,0,0.4,0,0.5,0.1v-1.1
		c-0.2,0-0.4-0.1-0.6-0.1c-0.6,0-1.1,0.1-1.4,0.4C68.1,15,68,15.3,68,15.8s0.2,0.9,0.7,1.3L68,17.3L68.3,18.3z"/>
	<path class="st1" d="M80.9,17.9l-1.5,0.6c-0.3,0.1-0.4,0.3-0.4,0.6v12.2h1.9V17.9z"/>
	<path class="st1" d="M88.7,20.7h1.7h0.1v-0.2v-1.7h-0.1h-1.7h-0.1v1.7C88.6,20.7,88.6,20.7,88.7,20.7"/>
	<path class="st1" d="M91.3,20.7H93l0,0v-0.2v-1.7l0,0h-1.7h-0.1v1.7C91.2,20.7,91.3,20.7,91.3,20.7"/>
	<path class="st1" d="M115.3,28.9v-2.3c0-0.6,0.2-1.1,0.6-1.5s0.9-0.6,1.5-0.6h1.6c0.3,0,0.4,0.1,0.5,0.3l0.1,4.1
		c0,0.6-0.2,0.9-0.6,0.9h-3.2C115.5,29.7,115.3,29.4,115.3,28.9 M107,28c-0.2,0.7-0.4,1.1-0.6,1.4c-0.2,0.2-0.5,0.4-1,0.4h-1.3
		l-1.6-4.7l0.2-0.6c0.2-0.1,0.5-0.2,0.8-0.3c0.3-0.1,0.6-0.1,0.8-0.1c0.5-0.1,0.8-0.1,1.1-0.1c0.6,0,1.1,0.2,1.4,0.5
		s0.4,0.7,0.4,1.4C107.4,26.4,107.3,27.2,107,28 M91.8,29.7L91.8,29.7H90c-0.6,0-1-0.2-1.5-0.7c-0.4-0.4-0.6-1-0.6-1.6v-1.1
		c0-0.6,0.2-1.1,0.6-1.6c0.4-0.4,0.9-0.6,1.5-0.6l2.3-0.1v5.5h-0.5V29.7z M119.1,31.4c0.7,0,1.3-0.2,1.7-0.7
		c0.4-0.5,0.6-1.1,0.6-1.8c0-1.9,0-3.3,0-4.3c0-0.5-0.2-1-0.6-1.3s-0.8-0.5-1.3-0.5h-2c-1.1,0-1.9,0.4-2.7,1.1
		c-0.7,0.8-1.1,1.7-1.1,2.7v2.3V29c-0.2,0.3-0.4,0.5-0.6,0.6s-0.4,0.1-0.8,0.1h-1.7h-0.7h-1.5c0.5-1.5,0.7-2.9,0.7-4s-0.2-2-0.6-2.6
		c-0.5-0.7-1.4-1-2.6-1c-0.8,0-1.6,0.1-2.5,0.3l-2.1,0.5l-0.6,1.9l1.5,4.8h-1.9h-4.9h-1.3v-7.2h-4.2c-1.1,0-2,0.4-2.8,1.2
		c-0.8,0.8-1.1,1.7-1.1,2.7v1.1c0,1.1,0.4,2,1.1,2.7c0.8,0.8,1.7,1.1,2.7,1.1H94h1.3h4.9h9.5h0.7h1.7c0.7,0,1.4-0.2,2-0.6
		c0.4,0.4,1,0.6,1.6,0.6h3.4V31.4z"/>
	<path class="st1" d="M136.5,32.6h-1.7c-0.1,0-0.1,0-0.1,0v1.7c0,0.1,0.1,0.1,0.1,0.1h1.7c0.1,0,0.1,0,0.1-0.1L136.5,32.6
		C136.6,32.6,136.6,32.6,136.5,32.6L136.5,32.6z"/>
	<path class="st1" d="M128.2,31.4h10.9l-0.2-1.6h-0.6v-3.4c0-1.1-0.4-2-1.1-2.8c-0.7-0.7-1.6-1.1-2.7-1.1c-0.3,0-0.7,0.1-1.3,0.2
		s-1.1,0.2-1.5,0.4l0.3,1.5c1.1-0.3,2-0.4,2.6-0.4s1.1,0.2,1.4,0.6c0.4,0.4,0.5,0.9,0.5,1.6v3.4h-8.4h-0.9h-1.4V17.9l-1.5,0.6
		c-0.3,0.1-0.4,0.3-0.4,0.6v12.2h3.2h1.1V31.4z"/>
	<path class="st1" d="M4.2,43.1c-0.1,0-0.2,0-0.2,0.1v1.7c0,0,0.1,0.1,0.2,0.1h1.7C6,45,6,44.9,6,44.9v-1.7v-0.1H5.9
		C5.9,43.1,4.2,43.1,4.2,43.1z"/>
	<path class="st1" d="M20.5,50.5h-3.2c-0.4,0-0.6-0.3-0.6-0.9v-2.3c0-0.6,0.2-1.1,0.7-1.6c0.4-0.4,1-0.6,1.5-0.6h1.7
		c0.3,0,0.4,0.1,0.5,0.3l0.1,4.2C21.1,50.2,20.9,50.5,20.5,50.5 M33,50.5h-0.7V47c0-1.1-0.4-2.1-1.1-2.8s-1.6-1.1-2.7-1.1
		c-0.3,0-0.7,0.1-1.3,0.2c-0.6,0.1-1.1,0.2-1.5,0.4l0.3,1.6c1.1-0.3,2-0.4,2.6-0.4s1.1,0.2,1.5,0.6c0.4,0.4,0.6,0.9,0.6,1.6l0.1,3.5
		h-5.1h-0.1h-1.3c-0.4,0-0.6,0-0.8-0.1c-0.2-0.1-0.3-0.3-0.5-0.5v-0.3c0-1.9,0-3.4-0.1-4.3c0-0.5-0.2-1-0.6-1.3s-0.8-0.5-1.3-0.5h-2
		c-1.1,0-2,0.4-2.7,1.2c-0.7,0.8-1.1,1.7-1.1,2.8l0.1,2.3v0.2c-0.2,0.3-0.4,0.5-0.6,0.6c-0.2,0.1-0.4,0.1-0.8,0.1H13h-0.8h-1.4v-2
		v-2.2L9.3,47c-0.3,0.1-0.5,0.3-0.5,0.6l0.1,1.9v2.1c0,1,0,1.7-0.1,2.2S8.5,54.7,8.2,55S7.5,55.5,7,55.7s-1.1,0.2-1.7,0.2
		s-1.2-0.1-1.7-0.3s-0.9-0.4-1.1-0.7c-0.4-0.5-0.6-1.4-0.6-2.5c0-1.4,0.3-2.9,0.8-4.4H0.9c-0.6,1.5-0.8,3-0.8,4.4
		c0,1.6,0.4,2.9,1.1,3.7c0.4,0.5,1,0.8,1.7,1.1c0.7,0.2,1.6,0.4,2.5,0.4s1.7-0.1,2.4-0.4c0.8-0.2,1.3-0.6,1.8-1
		c0.4-0.4,0.7-0.9,0.9-1.5s0.3-1.5,0.4-2.5h1.4H13h0.6c0.7,0,1.4-0.2,2.1-0.6c0.4,0.4,1,0.6,1.6,0.6h3.2c0.7,0,1.2-0.2,1.6-0.6
		c0.6,0.4,1.2,0.6,2,0.6h1.2h0.2h7.7L33,50.5z"/>
	<path class="st1" d="M40.6,39.7v10.8h-1.2h-1h-0.9v-7L36,44c-0.2,0.2-0.3,0.4-0.3,0.6v7.5c0,1.8-0.9,2.8-2.7,2.8h-0.4l-0.7,1.5
		c0.4,0.1,0.9,0.1,1.6,0.1c1.3,0,2.2-0.4,3-1.1c0.7-0.7,1.1-1.8,1.1-3.3h0.9h1h3.2V38.5L41,39.1C40.7,39.3,40.6,39.5,40.6,39.7"/>
	<path class="st1" d="M44.4,39.7v12.4h2V38.5l-1.5,0.7C44.5,39.3,44.4,39.5,44.4,39.7"/>
	<path class="st1" d="M61.8,53.9h-1.7c-0.1,0-0.1,0-0.1,0.1v1.8c0,0.1,0.1,0.1,0.1,0.1h1.7c0.1,0,0.1,0,0.1-0.1L61.8,53.9
		C61.9,53.9,61.9,53.9,61.8,53.9L61.8,53.9z"/>
	<path class="st1" d="M68.6,50.1c-0.2-0.2-0.5-0.6-0.7-1.3c-0.4-1.1-0.6-1.9-0.6-2.5c0-1,0.6-1.5,1.6-1.5c0.6,0,1.5,0.2,2.6,0.5
		l0.3-1.7c-1.2-0.3-2.2-0.4-3.1-0.4c-1.1,0-1.9,0.3-2.4,0.8s-0.8,1.4-0.8,2.5s0.2,2.4,0.7,4.1h-1.1H64h-2v-7.3L60.5,44
		c-0.3,0.1-0.5,0.3-0.5,0.6l0.1,6.1h-2h-0.3h-1.3v-2.9c0-1.4-0.4-2.5-1.2-3.3s-1.7-1.2-2.9-1.2c-1.1,0-2.3,0.4-3.5,1.1l0.4,1.5
		c1-0.6,1.9-0.9,2.8-0.9c0.7,0,1.3,0.2,1.7,0.7c0.4,0.4,0.6,1.1,0.7,1.9l0.1,3.1h-6.5v1.7h9.7h0.3H64h1.1h7.5v-1.7c-1.5,0-2.5,0-3,0
		C69.2,50.4,68.8,50.3,68.6,50.1"/>
	<path class="st1" d="M86.2,41.4v-1.7c0-0.1,0-0.1-0.1-0.1h-1.7h-0.1v0.1v1.7c0,0.1,0,0.1,0.1,0.1L86.2,41.4
		C86.2,41.6,86.2,41.5,86.2,41.4"/>
	<path class="st1" d="M83.4,41.6C83.4,41.6,83.5,41.6,83.4,41.6l0.1-1.8v-0.1c0,0,0,0-0.1,0h-1.8c-0.1,0-0.1,0-0.1,0.1v1.7
		c0,0.1,0,0.1,0.1,0.1H83.4z"/>
	<path class="st1" d="M96.9,41.7C97,41.7,97,41.7,96.9,41.7l0.1-1.8v-0.1h-0.1h-1.7c-0.1,0-0.1,0-0.1,0.1v1.7c0,0.1,0.1,0.1,0.1,0.1
		H96.9z"/>
	<path class="st1" d="M102.4,53.8h-1.7c-0.1,0-0.1,0-0.1,0.1v1.7c0,0.1,0.1,0.1,0.1,0.1h1.7c0.1,0,0.1,0,0.1-0.1L102.4,53.8
		C102.5,53.8,102.5,53.8,102.4,53.8L102.4,53.8z"/>
	<path class="st1" d="M101.5,44.4l0.1,6.1h-2h-0.3h-2v-7.3l-1.6,0.7c-0.3,0.1-0.4,0.3-0.4,0.6v6.1h-2H93h-2.1v-7.3L89.3,44
		c-0.3,0.1-0.4,0.3-0.4,0.6l0.1,6.1h-7.7c-0.9,0-1.6-0.2-2-0.6c-0.4-0.4-0.6-1.2-0.6-2.1c0-0.6,0.1-1.3,0.2-2h-1.6
		c-0.2,0.9-0.3,1.8-0.3,2.6c0,2.6,1.4,3.9,4.2,3.9H93h0.3h6h0.3h3.9v-9l-1.5,0.7C101.7,44,101.5,44.2,101.5,44.4"/>
	<path class="st1" d="M112,50.5c-0.6,0-1.1-0.2-1.5-0.7c-0.4-0.4-0.6-1-0.6-1.6v-1.1c0-0.6,0.2-1.2,0.6-1.6c0.4-0.4,0.9-0.6,1.5-0.6
		h2.3l0.1,5.7H112V50.5z M116.2,43.1h-4.3c-1.1,0-2,0.4-2.8,1.2S108,46,108,47.1v1.1c0,1.1,0.4,2,1.2,2.8c0.8,0.8,1.7,1.2,2.7,1.1
		l4.3-0.1C116.2,52,116.2,43.1,116.2,43.1z"/>
	<path class="st1" d="M113.6,39.4v1.7c0,0.1,0,0.2,0.1,0.2h1.7h0.1v-0.2v-1.7l-0.1-0.1L113.6,39.4C113.6,39.4,113.6,39.4,113.6,39.4
		"/>
	<path class="st1" d="M110.9,39.4v1.7c0,0.1,0,0.2,0.1,0.2h1.7h0.1v-0.2v-1.7l-0.1-0.1L110.9,39.4C110.9,39.4,110.9,39.4,110.9,39.4
		"/>
	<path class="st1" d="M119.1,44.6v7.5c0,1.8-0.9,2.8-2.7,2.8H116l-0.7,1.5c0.4,0.1,0.9,0.2,1.6,0.2c1.3,0,2.2-0.4,3-1.1
		c0.7-0.7,1-1.8,1-3.3v-8.7l-1.5,0.5C119.2,44.1,119.1,44.3,119.1,44.6"/>
	<path class="st1" d="M128.8,50.5H127c-0.7,0-1.2-0.3-1.6-0.8s-0.6-1.2-0.6-1.9c0-0.6,0.2-1.3,0.6-1.9c0.4-0.6,0.9-0.9,1.6-0.9h1.9
		L128.8,50.5L128.8,50.5z M136.6,44.4l0.1,6.1H132h-1h-0.3v-7.2l-3.7-0.1c-1.2,0-2.2,0.5-3,1.4c-0.7,0.8-1,1.9-1,3.1
		c0,1.2,0.3,2.2,1,3c0.7,0.9,1.7,1.4,3,1.4h1.9c0,0.8-0.2,1.5-0.6,2c-0.4,0.5-1.1,0.7-2.1,0.7h-0.3l-0.6,1.5
		c0.4,0.1,0.9,0.1,1.5,0.1c1.3,0,2.3-0.4,3-1.1c0.7-0.7,1.1-1.8,1.1-3.3v-0.1h0.3h0.9h6.7v-9l-1.6,0.7
		C136.8,44,136.6,44.2,136.6,44.4"/>
	<path class="st1" d="M136.3,39.8c-0.1,0-0.2,0-0.2,0.1v1.7c0,0.1,0.1,0.1,0.2,0.1h1.7c0.1,0,0.1,0,0.1-0.1v-1.7v-0.1H138H136.3z"/>
</g>
</svg>
